<svg width="33" height="13" viewBox="0 0 33 13" fill="none" xmlns="http://www.w3.org/2000/svg">
<path d="M8.728 0.799999H11V12H8.808V4.736L5.656 9.936H5.4L2.248 4.752V12H0.0400001V0.799999H2.312L5.528 6.096L8.728 0.799999ZM12.8799 0.799999H21.1199V2.912H18.0959V12H15.8879V2.912H12.8799V0.799999ZM27.6489 12.224C25.9742 12.224 24.5822 11.664 23.4729 10.544C22.3742 9.43467 21.8249 8.05333 21.8249 6.4C21.8249 4.736 22.3742 3.35467 23.4729 2.256C24.5822 1.136 25.9742 0.575999 27.6489 0.575999C28.6622 0.575999 29.5955 0.815999 30.4489 1.296C31.3129 1.76533 31.9849 2.40533 32.4649 3.216L30.5609 4.32C30.2835 3.81867 29.8889 3.42933 29.3769 3.152C28.8649 2.864 28.2889 2.72 27.6489 2.72C26.5609 2.72 25.6809 3.06133 25.0089 3.744C24.3475 4.43733 24.0169 5.32267 24.0169 6.4C24.0169 7.46667 24.3475 8.34667 25.0089 9.04C25.6809 9.72267 26.5609 10.064 27.6489 10.064C28.2889 10.064 28.8649 9.92533 29.3769 9.648C29.8995 9.36 30.2942 8.97067 30.5609 8.48L32.4649 9.584C31.9849 10.3947 31.3129 11.04 30.4489 11.52C29.5955 11.9893 28.6622 12.224 27.6489 12.224Z" fill="black"/>
</svg>
