<svg width="20" height="19" viewBox="0 0 20 19" fill="none" xmlns="http://www.w3.org/2000/svg">
<path opacity="0.7" fill-rule="evenodd" clip-rule="evenodd" d="M5.85234 15.2001C4.77941 15.2001 3.90156 16.0551 3.90156 17.1001C3.90156 18.1451 4.77941 19.0001 5.85234 19.0001C6.92527 19.0001 7.80312 18.1451 7.80312 17.1001C7.80312 16.0551 6.92527 15.2001 5.85234 15.2001ZM0 0V1.85778H1.95078L5.46218 8.91733L4.09663 11.1467C3.99909 11.4253 3.90156 11.7969 3.90156 12.0755C3.90156 13.0973 4.77941 13.9333 5.85233 13.9333H17.557V12.0755H6.24249C6.14495 12.0755 6.04741 11.9827 6.04741 11.8898V11.7969L6.92526 10.2178H14.1431C14.9234 10.2178 15.5087 9.84622 15.8013 9.28888L19.3127 3.25111C19.5078 3.06533 19.5078 2.97244 19.5078 2.78667C19.5078 2.22933 19.1176 1.85778 18.5324 1.85778H4.09663L3.21878 0H0ZM14.956 15.2001C13.8831 15.2001 13.0052 16.0551 13.0052 17.1001C13.0052 18.1451 13.8831 19.0001 14.956 19.0001C16.0289 19.0001 16.9068 18.1451 16.9068 17.1001C16.9068 16.0551 16.0289 15.2001 14.956 15.2001Z" fill="white"/>
</svg>
