<svg id="Layer_1" data-name="Layer 1" xmlns="http://www.w3.org/2000/svg" viewBox="0 0 701.6 778.33"><defs><style>.cls-1{fill:#909090;}.cls-2{fill:#939393;}.cls-3{fill:#949494;}</style></defs><title>cart-empty</title><path class="cls-1" d="M112.32,199.82c27.36-4.22,52.52-1.69,77.49-2.12,51.4-.89,48.44,6.44,50.56-47C243.07,82.49,300.67,19.94,369.15,9c75.24-12.06,147.48,28.41,174.32,96.71,8.9,22.66,11.45,45.89,10.4,69.66-.75,17,6.35,23.09,23,22.47,24.42-.91,48.9-.23,73.35-.16,30.82.09,31.25.16,34.94,31.55,6.58,56.11,12.61,112.28,19,168.4q20.25,177.49,40.5,355c1.17,10.39,4,20.94.75,32.61H45.36C67.83,588.68,90,394.93,112.32,199.82Zm124,28.05c-29.93,0-58.8-.33-87.65.16-11.27.19-12.06,9.44-13.06,18.15C119,391.12,101.89,536,86,681c-2.62,23.9-8.38,47.82-6.36,73.78H715.91c-3.43-31-6.54-59.68-9.78-88.31q-12.61-111.56-25.33-223.1c-7.55-66-15.34-132-22.75-198.08-1.16-10.37-4.16-17.78-16.22-17.71-24.46.14-48.92.15-73.37.22-9.38,0-13.44,5-14.46,14.09-1.54,13.78,2.91,24.79,11.3,35.79,9.09,11.92,6.57,24.64-4.17,35.09-10.19,9.91-26.85,10.87-37.92,2.64-12-8.94-15.17-22.72-8-36.65,2.09-4,5.54-7.41,7.5-11.5,11.64-24.3,2.27-39.76-24.3-39.82q-102-.19-204.1,0c-25,.06-33.43,12.51-24.85,36.58,1.5,4.22,4.75,7.79,7,11.75,9,15.74,7.3,28.71-5,38.78-10.83,8.83-27.57,8.62-38-.49-11.6-10.11-14.08-25.14-3.19-39S241.18,247.59,236.36,227.87Zm168.5-28.14c28.64.27,65.29.35,101.91-2.09,9.88-.66,17.21-2,19.08-14.51,10.86-72.61-48.18-145.24-120.34-147.21-82.25-2.25-137.69,52.87-137.59,136.82,0,24,1.95,26.56,25.8,26.88C328.08,200.08,362.46,199.73,404.86,199.73Z" transform="translate(-45.36 -6.84)"/><path class="cls-2" d="M400.85,545.07c38,1.1,74.39,14.23,100.16,48.85,5.7,7.67,18.14,17.6,5.17,27.08-11.2,8.19-17.88-4.47-23.14-12.11C449.3,560,373.87,562.16,337.67,584c-12.76,7.7-22.24,18.44-30.94,30.18-5.11,6.91-11,14.8-20.39,7.13-7.85-6.42-2.5-13.68,1.4-20.4C307.4,567.05,350.75,544.85,400.85,545.07Z" transform="translate(-45.36 -6.84)"/><path class="cls-3" d="M464.92,494.46c-14.11-.6-23.45-11-22.91-25.59.53-14.17,10.88-24.36,24.69-24.3,13.45.07,26.12,13.84,24.91,27.07C490.45,484.48,478.12,495,464.92,494.46Z" transform="translate(-45.36 -6.84)"/><path class="cls-3" d="M326.77,494.6c-13-.43-24.62-12.08-24.81-24.91-.2-13.42,13.2-25.67,27.08-24.75s23.18,11.77,22.69,26.09S340.89,495.07,326.77,494.6Z" transform="translate(-45.36 -6.84)"/></svg>