<svg width="29" height="29" viewBox="0 0 29 29" fill="none" xmlns="http://www.w3.org/2000/svg">
<path fill-rule="evenodd" clip-rule="evenodd" d="M8.60562 23.1915C7.02789 23.1915 5.73702 24.4961 5.73702 26.0905C5.73702 27.6849 7.02789 28.9894 8.60562 28.9894C10.1834 28.9894 11.4742 27.6849 11.4742 26.0905C11.4742 24.4961 10.1834 23.1915 8.60562 23.1915ZM0 0V2.83451H2.8686L8.03209 13.6056L6.02407 17.0071C5.88064 17.4322 5.73721 17.9991 5.73721 18.4243C5.73721 19.9833 7.02808 21.2588 8.60581 21.2588H25.8174V18.4243H9.17953C9.0361 18.4243 8.89267 18.2826 8.89267 18.1409V17.9991L10.1835 15.5898H20.7974C21.9448 15.5898 22.8054 15.0229 23.2357 14.1726L28.3992 4.96039C28.686 4.67694 28.686 4.53522 28.686 4.25177C28.686 3.40141 28.1123 2.83451 27.2517 2.83451H6.02407L4.7332 0H0ZM21.9927 23.1915C20.415 23.1915 19.1241 24.4961 19.1241 26.0905C19.1241 27.6849 20.415 28.9894 21.9927 28.9894C23.5704 28.9894 24.8613 27.6849 24.8613 26.0905C24.8613 24.4961 23.5704 23.1915 21.9927 23.1915Z" fill="white"/>
</svg>
