<svg width="26" height="26" viewBox="0 0 26 26" fill="none" xmlns="http://www.w3.org/2000/svg">
<g opacity="0.7" clip-path="url(#clip0)">
<path d="M21.5649 16.1101L17.5626 11.1598L21.1175 9.02613C21.4648 8.81773 21.5858 8.35247 21.3877 7.9871C21.1895 7.62168 20.7471 7.49442 20.3999 7.70288C20.1027 7.88127 13.3662 11.9243 13.0353 12.1229C12.7029 11.9234 5.96478 7.87934 5.67076 7.70288C5.3234 7.49447 4.88128 7.62158 4.68304 7.9871C4.48493 8.35247 4.6058 8.81768 4.95321 9.02613L8.50814 11.1598L4.50578 16.1101C4.24671 16.4306 4.28359 16.9112 4.58823 17.1838C4.89282 17.4565 5.34995 17.4175 5.60888 17.0971L9.78805 11.928L12.6765 13.6616C12.8989 13.795 13.1718 13.795 13.3941 13.6616L16.2826 11.928L20.4618 17.0971C20.7209 17.4177 21.178 17.4563 21.4824 17.1838C21.7871 16.9113 21.8239 16.4306 21.5649 16.1101Z" fill="white"/>
<path d="M23.2204 4.11328H2.84994C1.65218 4.11328 0.677734 5.1384 0.677734 6.39844V19.6016C0.677734 20.8616 1.65218 21.8867 2.84994 21.8867H23.2204C24.4181 21.8867 25.3926 20.8616 25.3926 19.6016V6.39844C25.3926 5.1384 24.4181 4.11328 23.2204 4.11328ZM23.9444 19.6016C23.9444 20.0216 23.6196 20.3633 23.2204 20.3633H2.84994C2.45069 20.3633 2.12587 20.0216 2.12587 19.6016V6.39844C2.12587 5.97843 2.45069 5.63672 2.84994 5.63672H23.2204C23.6196 5.63672 23.9444 5.97843 23.9444 6.39844V19.6016Z" fill="white"/>
</g>
<defs>
<clipPath id="clip0">
<rect width="24.7148" height="26" fill="white" transform="translate(0.677734)"/>
</clipPath>
</defs>
</svg>
