<svg width="117" height="108" viewBox="0 0 117 108" fill="none" xmlns="http://www.w3.org/2000/svg">
<path d="M71.3084 63.0118C69.8489 65.1138 67.9068 66.8303 65.647 68.0155C63.3873 69.2007 60.8767 69.8196 58.3285 69.8196C55.7802 69.8196 53.2696 69.2007 51.0099 68.0155C48.7501 66.8303 46.808 65.1138 45.3485 63.0118H0L30.1297 64.6229L32.0211 69.7928L38.3725 68.1639C40.0675 70.5431 42.1671 72.6019 44.5744 74.2456L42.6566 79.9643L50.9346 83.7797L54.2774 78.1584C55.6142 78.3882 56.9679 78.5037 58.3241 78.5036C59.8735 78.5014 61.4194 78.3562 62.9425 78.0698L65.5816 83.461L74.1323 80.3006L72.54 73.9269C74.9055 72.2374 76.9546 70.1394 78.5923 67.7302L84.2752 69.66L86.5712 64.6672L117 63.0118H71.3084ZM72.1881 68.3233L71.8978 68.6331L71.7131 68.8367L71.4932 69.0403L70.9741 69.5361L70.332 70.0761C70.1032 70.2708 69.8393 70.4567 69.5666 70.6692C69.4435 70.7754 69.2939 70.8639 69.1532 70.9702L68.6957 71.2711C68.3878 71.4747 68.0535 71.6695 67.7105 71.8731L67.165 72.1564C66.9803 72.2538 66.7956 72.3511 66.602 72.4397C65.7942 72.828 64.9592 73.1565 64.1037 73.4223C63.1879 73.7073 62.253 73.9262 61.3062 74.0774C59.3448 74.3872 57.3473 74.3872 55.3859 74.0774C54.4391 73.9262 53.5042 73.7073 52.5884 73.4223C51.733 73.1565 50.8979 72.828 50.0901 72.4397C49.8965 72.3511 49.7118 72.2538 49.5271 72.1564L48.9904 71.8731C48.6386 71.6695 48.2955 71.4747 47.9964 71.2711C47.6973 71.0675 47.3894 70.8728 47.1167 70.6692C46.844 70.4656 46.5889 70.2708 46.3514 70.0761L45.7444 69.5095L45.1901 69.0492L44.9614 68.8367L44.7855 68.642L44.4952 68.3233L44.2489 68.0665L44.5216 68.2967C44.6975 68.4384 44.9438 68.6685 45.2869 68.9341L45.8411 69.3679L46.5361 69.8459C47.081 70.2013 47.6449 70.5264 48.2251 70.8197C48.533 70.9967 48.8761 71.1738 49.2192 71.3508C49.5623 71.5279 49.9405 71.6961 50.3276 71.8466L50.9082 72.0856L51.5152 72.298C51.9198 72.4574 52.3421 72.5724 52.7732 72.7052C53.6676 72.9466 54.5753 73.1358 55.4914 73.2718C57.3857 73.5319 59.3064 73.5319 61.2007 73.2718C62.1149 73.1409 63.0198 72.9517 63.9102 72.7052C64.3412 72.5724 64.7898 72.4574 65.1769 72.298C65.3792 72.2272 65.5816 72.1652 65.7839 72.0856L66.3645 71.8466C66.7516 71.6961 67.1035 71.5013 67.4641 71.3508C67.811 71.1988 68.1461 71.0213 68.467 70.8197C69.1004 70.4744 69.6634 70.1115 70.1472 69.7839L70.8422 69.3059L71.3964 68.8721C71.7483 68.6154 71.9858 68.3764 72.1705 68.2347L72.408 68.0046L72.1881 68.3233Z" fill="#F8E541"/>
<path d="M86.061 41.8898L84.6359 38.0036L78.2932 39.6059C76.6112 37.2307 74.5267 35.1721 72.1353 33.5243L74.0531 27.8144L65.7839 23.9902L62.4235 29.6292C59.5487 29.1524 56.6131 29.1854 53.7496 29.7265L51.1105 24.3354L42.5599 27.4957L44.1521 33.8695C41.7847 35.5596 39.7328 37.6574 38.091 40.0662L32.4081 38.1452L30.6487 41.8898L0.290314 43.5452H46.325C47.8115 41.805 49.654 40.4084 51.7265 39.451C53.7989 38.4936 56.0524 37.9979 58.3329 37.9979C60.6133 37.9979 62.8668 38.4936 64.9393 39.451C67.0117 40.4084 68.8542 41.805 70.3408 43.5452H116.71L86.061 41.8898ZM72.1353 39.5439C71.9594 39.4023 71.7131 39.1721 71.37 38.9154L70.8158 38.4816L70.1208 37.9947C69.5804 37.6182 69.0195 37.2724 68.4406 36.959C68.1239 36.782 67.7808 36.6049 67.4378 36.4279C67.0801 36.2434 66.713 36.0779 66.3381 35.9321L65.7575 35.6931L65.1505 35.4806C64.7371 35.3213 64.2708 35.2062 63.8838 35.0734C62.9978 34.8381 62.099 34.6549 61.1919 34.5246C59.2976 34.2645 57.3769 34.2645 55.4826 34.5246C54.5729 34.6483 53.6711 34.8257 52.782 35.0557C52.3509 35.1974 51.9023 35.3125 51.5152 35.4629L50.9082 35.6843L50.3276 35.9233C49.9405 36.0738 49.5887 36.2685 49.228 36.419C48.8831 36.5716 48.5481 36.746 48.2251 36.9413C47.5917 37.2954 47.0287 37.6584 46.5361 37.9859L45.8499 38.4639L45.2957 38.8977C44.9438 39.1544 44.7063 39.3934 44.5304 39.5351L44.2577 39.7741L44.504 39.5174L44.7943 39.2075L44.9702 39.0039L45.199 38.8003C45.3485 38.6498 45.542 38.4816 45.718 38.3046L46.3602 37.7646C46.5889 37.5698 46.844 37.3839 47.1167 37.1715C47.2525 37.067 47.3934 36.9695 47.539 36.8793L47.9876 36.5695C48.3043 36.3659 48.6386 36.1711 48.9817 35.9675L49.5183 35.6843L50.0813 35.401C50.8892 35.0126 51.7242 34.6842 52.5796 34.4184C53.4955 34.1334 54.4303 33.9145 55.3771 33.7633C58.2945 33.3071 61.2771 33.5313 64.0949 34.4184C64.9476 34.6875 65.7797 35.0188 66.5844 35.4098L67.1475 35.6931L67.6929 35.9764C68.0359 36.18 68.379 36.3747 68.6781 36.5784C68.9772 36.782 69.2851 36.9767 69.5578 37.1803C69.8305 37.3839 70.0944 37.5787 70.3232 37.7734L70.9653 38.3134L71.4844 38.8003L71.7043 39.0128L71.889 39.2075L72.1793 39.5262L72.4169 39.7829L72.1353 39.5439Z" fill="#F8E541"/>
<path d="M29.6898 7.48919C29.9006 8.45852 29.7958 9.47039 29.3907 10.3751C28.554 12.3702 27.3914 14.2104 25.9511 15.8194C23.5087 18.8152 20.5236 21.3175 17.1541 23.1935C16.3014 23.6219 15.4195 23.9887 14.515 24.2912C14.1052 24.4233 13.6785 24.4949 13.2483 24.5036C11.9111 24.5656 11.2601 23.9194 11.4097 22.5915C11.4644 21.9372 11.6279 21.2968 11.8935 20.6971C12.5973 19.2807 13.4066 17.9085 14.2423 16.3948C14.8229 16.9879 15.2804 17.4305 15.6938 17.8997C15.9191 18.187 16.2244 18.4003 16.5707 18.5122C16.9169 18.6242 17.2885 18.6297 17.638 18.5282C18.551 18.2692 19.4242 17.8849 20.2331 17.3862C21.6197 16.512 22.7089 15.2337 23.356 13.7213C23.6615 13.2154 23.7703 12.6137 23.6614 12.0319C23.5526 11.4502 23.2339 10.9294 22.7666 10.5698C22.3883 10.2246 22.0365 9.86165 21.6934 9.48099C23.6287 8.21509 25.5113 7.01115 27.8073 6.76329C28.248 6.76176 28.6876 6.80926 29.118 6.90493L29.6898 7.48919Z" fill="#F8E541"/>
<path d="M36.9473 35.7639C34.8167 35.4107 32.7755 34.6408 30.939 33.4977C29.9384 32.7595 29.0051 31.9329 28.1504 31.0279L19.5557 23.1492C19.4469 23.0461 19.3441 22.9367 19.2478 22.8216C22.576 20.5794 25.4978 17.7798 27.8864 14.5446L29.5315 16.4125L38.0118 26.2653C38.1436 26.4039 38.2534 26.5621 38.3373 26.7344C39.0234 28.3721 39.7096 30.0187 40.3782 31.6741C40.483 32.0434 40.5653 32.4189 40.6245 32.7984C40.1758 32.3469 39.8416 32.0194 39.5161 31.6653L29.9889 21.0423C29.8977 20.895 29.7772 20.7684 29.6349 20.6703C29.4926 20.5722 29.3317 20.5049 29.1623 20.4724C28.9929 20.44 28.8187 20.4432 28.6506 20.4819C28.4825 20.5205 28.3241 20.5938 28.1855 20.6971C27.0277 21.2626 26.072 22.1748 25.4497 23.3085C25.0098 24.1318 25.0714 24.4948 25.784 25.1498L36.5691 35.4098C36.701 35.4895 36.8242 35.6312 36.9473 35.7639Z" fill="#F8E541"/>
<path d="M11.5768 7.38295C13.4174 5.52795 15.5445 3.98533 17.8755 2.81508C18.5093 2.52231 19.1773 2.31114 19.8636 2.18656C21.2271 1.94754 21.9133 2.62033 21.5438 3.95705C21.2283 5.09436 20.745 6.17757 20.1099 7.17049C17.8914 10.6313 14.8177 13.4529 11.1898 15.359C10.4427 15.7404 9.64612 16.0146 8.82338 16.1734C7.44226 16.4479 6.82647 15.7751 7.06399 14.403C7.39251 13.0134 8.03692 11.7195 8.94654 10.623C9.93181 9.28623 11.0138 8.06459 11.5768 7.38295Z" fill="#F8E541"/>
<path d="M19.9516 8.72851C20.9328 9.65722 21.8637 10.6383 22.7402 11.6675C22.8412 11.9007 22.8933 12.1523 22.8933 12.4067C22.8933 12.6611 22.8412 12.9127 22.7402 13.1459C22.2349 14.6119 21.2482 15.8609 19.9428 16.6869C19.2232 17.1428 18.4525 17.5113 17.6468 17.7846C17.3771 17.8776 17.0853 17.8831 16.8123 17.8006C16.5393 17.718 16.2989 17.5514 16.1249 17.3243C15.3332 16.439 14.4799 15.6334 13.6353 14.7482C16.03 13.0826 18.1521 11.0517 19.9252 8.72851H19.9516Z" fill="#F8E541"/>
<path d="M87.3277 100.086C87.1282 99.1123 87.2359 98.1002 87.6356 97.1912C88.4533 95.1921 89.5948 93.3434 91.0137 91.7203C93.4223 88.7285 96.3675 86.2182 99.6963 84.3197C100.547 83.8863 101.429 83.5193 102.335 83.222C102.736 83.0899 103.154 83.0183 103.576 83.0095C104.895 82.9475 105.538 83.5938 105.397 84.9216C105.347 85.5825 105.184 86.2296 104.913 86.8338C104.218 88.2502 103.426 89.6223 102.599 91.1538C102.028 90.5518 101.579 90.118 101.165 89.64C100.949 89.3485 100.65 89.1309 100.306 89.0168C99.9634 88.9028 99.5937 88.8978 99.2477 89.0026C98.3461 89.2667 97.4848 89.6539 96.6878 90.1534C95.3148 91.0416 94.2389 92.3247 93.6 93.8361C93.3006 94.3444 93.1945 94.9448 93.3013 95.5258C93.408 96.1069 93.7204 96.6293 94.1806 96.9964C94.5573 97.3401 94.9128 97.7067 95.245 98.0941C93.3537 99.36 91.5063 100.573 89.2279 100.821C88.7929 100.822 88.3592 100.775 87.9347 100.679L87.3277 100.086Z" fill="#F8E541"/>
<path d="M80.1582 71.7049C82.2656 72.0578 84.2815 72.8314 86.0874 73.98C87.0782 74.7269 88.0024 75.5592 88.8496 76.4675L97.3299 84.3728C97.4387 84.4759 97.5415 84.5853 97.6378 84.7003C94.3466 86.9654 91.4613 89.7761 89.1047 93.0128C88.5505 92.3577 88.0227 91.7557 87.4861 91.1361C84.6887 87.8429 81.9 84.5439 79.1202 81.239C78.9884 81.1004 78.8786 80.9421 78.7947 80.7698C78.1085 79.1321 77.4399 77.4679 76.789 75.8125C76.6728 75.4395 76.5874 75.0576 76.5338 74.6705C76.9649 75.1308 77.308 75.4584 77.6159 75.8125L87.0199 86.4354C87.1088 86.579 87.2259 86.7027 87.3641 86.7989C87.5024 86.8952 87.6587 86.962 87.8235 86.9951C87.9883 87.0283 88.1581 87.0272 88.3225 86.9918C88.4869 86.9564 88.6423 86.8876 88.7793 86.7895C89.9336 86.2107 90.8783 85.2818 91.4799 84.1338C91.5915 83.9962 91.6726 83.8363 91.7178 83.6646C91.763 83.493 91.7713 83.3137 91.7422 83.1386C91.713 82.9634 91.6471 82.7966 91.5488 82.6492C91.4505 82.5017 91.322 82.3771 91.172 82.2836L80.5541 72.1033L80.1582 71.7049Z" fill="#F8E541"/>
<path d="M105.203 100.201C103.391 102.059 101.291 103.608 98.9838 104.787C98.3591 105.079 97.6999 105.29 97.022 105.415C95.6761 105.654 94.9899 104.981 95.3682 103.645C95.6761 102.506 96.1505 101.42 96.7757 100.422C98.9479 96.9582 101.98 94.1237 105.573 92.1984C106.301 91.8096 107.084 91.5349 107.895 91.3839C109.259 91.1095 109.866 91.7823 109.602 93.1544C109.292 94.5466 108.669 95.8488 107.781 96.961C106.822 98.2623 105.757 99.5193 105.203 100.201Z" fill="#F8E541"/>
<path d="M96.9341 98.8466C95.984 97.8639 95.0075 96.9344 94.1894 95.8987C93.9939 95.4225 93.9939 94.8877 94.1894 94.4115C94.6918 92.9541 95.6641 91.7077 96.9517 90.8705C97.6585 90.4041 98.4211 90.0293 99.2213 89.7551C99.489 89.6616 99.7793 89.6567 100.05 89.7411C100.321 89.8256 100.557 89.9948 100.726 90.2243C101.5 91.1095 102.344 91.9239 103.18 92.8092C100.801 94.4854 98.6941 96.5219 96.9341 98.8466V98.8466Z" fill="#F8E541"/>
<path d="M103.875 27.5223C102.425 27.7902 100.927 27.5463 99.6347 26.8318C96.9617 25.5715 94.5081 23.8856 92.3684 21.839C90.0423 19.7768 88.0193 17.3923 86.3601 14.7571C85.6507 13.5729 85.0388 12.3324 84.5303 11.0479C84.2778 10.3661 84.1583 9.64174 84.1784 8.91443C84.1649 8.69084 84.1995 8.46695 84.2798 8.25803C84.3601 8.04911 84.4842 7.86006 84.6437 7.70378C84.8032 7.5475 84.9942 7.42767 85.2039 7.35244C85.4136 7.27722 85.6369 7.24837 85.8587 7.26788C86.1829 7.22813 86.5108 7.22813 86.8351 7.26788C88.5411 7.63146 90.1624 8.31952 91.6119 9.29509C91.2072 9.71115 90.8641 10.1007 90.4771 10.4371C90.1171 10.7035 89.8593 11.0867 89.7471 11.522C89.635 11.9574 89.6753 12.4183 89.8613 12.8272C90.2899 13.939 90.8355 15.0014 91.4887 15.9964C92.9783 18.147 94.9219 19.9396 97.1804 21.2459C97.6267 21.4941 98.0914 21.7071 98.5703 21.8833C99.0773 22.1633 99.6688 22.2468 100.233 22.118C100.797 21.9891 101.294 21.6569 101.632 21.1839C101.933 20.8391 102.253 20.5111 102.591 20.2013C103.734 22.3436 105.133 24.3 104.552 26.8761L103.875 27.5223Z" fill="#F8E541"/>
<path d="M103.488 7.08196C105.969 9.64032 107.719 11.6675 108.872 14.1639C109.255 14.98 109.519 15.8477 109.655 16.74C109.822 17.8643 109.206 18.4485 108.071 18.36C106.582 18.1855 105.162 17.6309 103.945 16.7488C99.8991 14.2368 96.5802 10.6986 94.3214 6.48884C93.8939 5.6545 93.5972 4.75867 93.4417 3.8331C93.2393 2.61146 93.8903 1.99179 95.1219 2.12458C96.8233 2.38044 98.4297 3.07585 99.7843 4.14294C101.306 5.2495 102.714 6.43573 103.488 7.08196Z" fill="#F8E541"/>
<path d="M93.9871 8.10886C95.5265 9.87935 96.8989 11.7561 98.5087 13.3495C100.119 14.943 101.966 16.2974 103.787 17.7757C102.749 18.8115 101.667 19.9977 100.488 21.0689C100.304 21.182 100.096 21.2489 99.8811 21.2636C99.6682 21.2799 99.4545 21.2465 99.2565 21.1662C98.2061 20.741 97.201 20.2102 96.2567 19.5817C94.3026 18.2186 92.6617 16.4496 91.4447 14.3941C91.2256 14.0136 91.0288 13.6204 90.8553 13.2167C90.609 12.8325 90.52 12.3672 90.6069 11.9184C90.6938 11.4695 90.9499 11.0719 91.3216 10.8089C92.2716 9.96788 93.1513 8.96755 93.9871 8.10886Z" fill="#F8E541"/>
<path d="M80.5189 24.539C83.4659 28.6111 83.6506 28.7882 87.5565 31.5148C87.4158 31.6711 87.266 31.8189 87.1078 31.9574C84.7994 33.6064 82.2621 34.904 79.5776 35.8082C79.3707 35.9013 79.1384 35.9204 78.9192 35.8625C78.7 35.8045 78.5071 35.6729 78.3724 35.4895C77.783 34.8433 77.1232 34.259 76.525 33.6128C76.4391 33.5264 76.3756 33.4199 76.3403 33.3029C76.3145 33.1863 76.3145 33.0655 76.3403 32.9489C77.1647 30.0154 78.499 27.252 80.2813 24.7869C80.352 24.707 80.4317 24.6357 80.5189 24.5744V24.539Z" fill="#F8E541"/>
<path d="M84.1696 27.8675C82.9322 26.6774 81.9032 25.2858 81.1259 23.7511C80.8993 23.2338 80.7397 22.6894 80.6508 22.1311C80.5716 21.5911 80.8971 21.2902 81.4337 21.3256C81.8026 21.3075 82.1692 21.3932 82.4924 21.573C82.8155 21.7528 83.0826 22.0196 83.2635 22.3436C84.8657 25.0722 87.1533 27.3284 89.8965 28.8856C90.2087 29.0965 90.4521 29.3955 90.5961 29.7452C90.7401 30.0948 90.7783 30.4794 90.7058 30.8508C90.6361 30.984 90.5368 31.0992 90.4155 31.1872C90.2909 31.2763 90.1453 31.3313 89.9932 31.3465C89.4287 31.2943 88.8762 31.1508 88.357 30.9216C86.7985 30.151 85.3824 29.1181 84.1696 27.8675V27.8675Z" fill="#F8E541"/>
<path d="M86.536 25.4862C85.5595 24.0964 84.5831 22.7774 83.6946 21.4053C83.4135 20.9299 83.2282 20.4035 83.1492 19.8561C82.982 19.0417 83.3515 18.7053 84.1872 18.8203C84.5008 18.8451 84.8033 18.9486 85.0669 19.1213C85.3375 19.2974 85.561 19.5375 85.7179 19.8207C87.3233 22.5528 89.6176 24.8096 92.3684 26.3626C92.6875 26.5808 92.9326 26.8919 93.071 27.2542C93.2094 27.6166 93.2343 28.0128 93.1426 28.3898C93.0625 28.5197 92.9503 28.6264 92.8171 28.6997C92.6877 28.7806 92.5384 28.8235 92.386 28.8236C91.7714 28.7719 91.1733 28.5974 90.6266 28.3102C89.2543 27.4426 87.9171 26.4423 86.536 25.4862Z" fill="#F8E541"/>
<path d="M89.483 23.1226C88.0466 21.8253 86.8546 20.2779 85.9642 18.5547C85.7507 18.1202 85.6223 17.6483 85.5859 17.1649C85.6041 17.0146 85.6524 16.8696 85.728 16.7387C85.8037 16.6078 85.905 16.4938 86.0258 16.4036C86.0874 16.3505 86.5184 16.5718 86.668 16.7488C89.0962 20.041 92.0197 22.9321 95.333 25.318C95.4738 25.4243 95.6585 25.7164 95.6145 25.8138C95.5705 25.9111 95.2626 26.3007 95.0867 26.2918C94.5439 26.3039 94.0056 26.1919 93.512 25.9643C92.2365 25.2029 91.0313 24.3266 89.8085 23.4856C89.6747 23.376 89.551 23.2546 89.439 23.1226H89.483Z" fill="#F8E541"/>
<path d="M12.8436 80.0794C14.2938 79.8107 15.7917 80.0547 17.0838 80.7698C19.7447 82.0367 22.1862 83.7254 24.3149 85.7715C26.6394 87.8353 28.6622 90.2196 30.3232 92.8534C31.032 94.0424 31.6468 95.2855 32.1618 96.5715C32.4071 97.2519 32.5235 97.9725 32.5049 98.6961C32.5215 98.9182 32.4908 99.1413 32.4149 99.3505C32.339 99.5598 32.2197 99.7503 32.0648 99.9095C31.91 100.069 31.7232 100.193 31.517 100.274C31.3107 100.354 31.0897 100.39 30.8686 100.378C30.5393 100.396 30.209 100.378 29.8834 100.325C28.1736 99.9545 26.5514 99.2541 25.1066 98.2623C25.5113 97.8551 25.8544 97.4567 26.2502 97.1203C26.6061 96.8505 26.8601 96.4668 26.9704 96.0324C27.0807 95.598 27.0408 95.1387 26.8572 94.7302C26.4229 93.6361 25.8744 92.5916 25.221 91.6141C23.732 89.4756 21.7913 87.6951 19.5381 86.4C19.094 86.1535 18.6324 85.9405 18.157 85.7626C17.6482 85.4839 17.0559 85.4012 16.4909 85.5299C15.9259 85.6586 15.4268 85.9899 15.0868 86.462C14.7875 86.809 14.4673 87.1371 14.128 87.4446C12.9844 85.3023 11.5856 83.3459 12.1662 80.7698L12.8436 80.0794Z" fill="#F8E541"/>
<path d="M13.1955 100.564C10.7147 97.9967 8.96413 95.9695 7.81173 93.482C7.4377 92.6723 7.17717 91.8142 7.03759 90.9325C6.87045 89.8082 7.48624 89.2328 8.62105 89.3125C10.1111 89.4896 11.5314 90.0472 12.7468 90.9325C16.7878 93.4201 20.107 96.9342 22.3707 101.122C22.8043 101.953 23.1014 102.85 23.2504 103.777C23.4528 105.008 22.8018 105.619 21.5702 105.495C19.8693 105.237 18.2632 104.542 16.9078 103.476C15.4123 102.361 14.0048 101.166 13.1955 100.564Z" fill="#F8E541"/>
<path d="M22.7402 99.4928C21.2095 97.7223 19.8372 95.8456 18.2186 94.2521C16.5999 92.6587 14.7613 91.3043 12.9404 89.8259C13.9696 88.7813 15.0516 87.6039 16.2304 86.5239C16.4164 86.4156 16.6235 86.3492 16.8374 86.3292C17.0503 86.3129 17.264 86.3463 17.462 86.4266C18.5144 86.8535 19.5222 87.3843 20.4706 88.0111C22.4205 89.3791 24.0604 91.1471 25.2826 93.1987C25.4988 93.5794 25.6927 93.9725 25.8632 94.3761C26.0976 94.7675 26.1806 95.2321 26.0962 95.6811C26.0118 96.1302 25.766 96.5322 25.4057 96.8105C24.4468 97.6338 23.5759 98.6518 22.7402 99.4928Z" fill="#F8E541"/>
<path d="M36.1996 83.0626C33.2526 78.9993 33.0679 78.8134 29.162 76.0869C29.3005 75.9284 29.4504 75.7804 29.6107 75.6443C31.9167 73.9891 34.4545 72.6883 37.1409 71.7846C37.353 71.6771 37.5962 71.6489 37.8271 71.7049C38.0432 71.763 38.2347 71.8904 38.3725 72.0679C38.9619 72.7229 39.6216 73.3072 40.2198 73.9446C40.3058 74.031 40.3692 74.1374 40.4046 74.2544C40.4442 74.371 40.4592 74.4946 40.4486 74.6174C39.6099 77.5662 38.2576 80.3417 36.4547 82.8148C36.384 82.8946 36.3043 82.966 36.2172 83.0272L36.1996 83.0626Z" fill="#F8E541"/>
<path d="M32.5489 79.7429C33.7882 80.928 34.8175 82.3171 35.5926 83.8505C35.8211 84.3733 35.9807 84.9238 36.0677 85.4882C36.1556 86.0193 35.8214 86.3203 35.2847 86.2938C34.9108 86.315 34.5384 86.23 34.2102 86.0484C33.882 85.8668 33.6111 85.596 33.4286 85.2669C31.8264 82.5383 29.5388 80.2821 26.7956 78.7249C26.4834 78.514 26.24 78.215 26.096 77.8653C25.952 77.5157 25.9138 77.131 25.9863 76.7597C26.056 76.6265 26.1553 76.5113 26.2766 76.4233C26.4012 76.3341 26.5468 76.2792 26.6989 76.2639C27.2634 76.3162 27.8159 76.4597 28.3351 76.6888C29.9076 77.4489 31.3342 78.4829 32.5489 79.7429V79.7429Z" fill="#F8E541"/>
<path d="M30.1913 82.1243C31.1589 83.5141 32.1354 84.78 33.0327 86.1964C33.3059 86.6746 33.4879 87.2 33.5693 87.7456C33.7365 88.56 33.367 88.9052 32.5313 88.7902C32.2178 88.7585 31.9163 88.6523 31.6516 88.4803C31.3795 88.3089 31.1578 88.0675 31.0094 87.781C29.4004 85.0517 27.1069 82.7957 24.3589 81.239C24.0373 81.0229 23.7896 80.7124 23.6495 80.3497C23.5094 79.987 23.4837 79.5897 23.5759 79.2118C23.656 79.082 23.7682 78.9752 23.9014 78.902C24.0321 78.8239 24.1806 78.7812 24.3325 78.778C24.9473 78.8285 25.5456 79.0032 26.0919 79.2915C27.4642 80.1767 28.8013 81.1682 30.1913 82.1243Z" fill="#F8E541"/>
<path d="M27.2707 84.479C28.7066 85.7767 29.8986 87.324 30.7895 89.0469C31.003 89.4815 31.1314 89.9533 31.1677 90.4367C31.1477 90.586 31.0999 90.7301 31.027 90.8616C30.9515 90.9934 30.8497 91.108 30.7279 91.198C30.6663 91.2511 30.2265 91.0298 30.0857 90.8528C27.6586 87.5601 24.7384 84.6664 21.4295 82.2748C21.2887 82.1774 21.104 81.8852 21.148 81.7879C21.192 81.6905 21.4998 81.301 21.6758 81.3098C22.2179 81.2947 22.7563 81.4037 23.2504 81.6285C24.526 82.3987 25.7312 83.2662 26.954 84.1072C27.0824 84.22 27.2001 84.3445 27.3059 84.479H27.2707Z" fill="#F8E541"/>
<path d="M26.259 57.479C25.1717 58.412 23.7908 58.9264 22.3619 58.9308C21.8208 58.9293 21.2824 58.8549 20.7609 58.7095C20.2695 58.5661 19.797 58.364 19.3534 58.1076C18.9151 57.8346 18.508 57.5139 18.1394 57.1515C17.7794 56.7825 17.4635 56.3726 17.1981 55.9298C16.9358 55.4756 16.729 54.9911 16.5823 54.4869C16.4408 53.9617 16.3698 53.4199 16.3712 52.8758C16.3635 51.8035 16.6496 50.7498 17.1981 49.8305C17.4593 49.3822 17.7756 48.9688 18.1394 48.6C18.5014 48.2326 18.9095 47.9141 19.3534 47.6528C19.8032 47.388 20.2852 47.1827 20.7873 47.042C21.3079 46.8923 21.8469 46.8178 22.3883 46.8207C23.0997 46.8189 23.8057 46.9448 24.4732 47.1925C25.1392 47.4349 25.754 47.8013 26.2854 48.2725L25.0538 50.3085C24.7221 49.9274 24.3105 49.6251 23.8486 49.4233C23.3894 49.2275 22.8958 49.1267 22.3971 49.1267C21.8984 49.1267 21.4048 49.2275 20.9456 49.4233C20.5071 49.6133 20.1074 49.8834 19.7668 50.22C19.4285 50.5596 19.1595 50.9626 18.9751 51.4062C18.7835 51.8629 18.6847 52.3535 18.6847 52.8492C18.6847 53.3449 18.7835 53.8355 18.9751 54.2921C19.1639 54.7307 19.4324 55.13 19.7668 55.4695C20.1074 55.8061 20.5071 56.0763 20.9456 56.2662C21.4015 56.4621 21.8926 56.5616 22.3883 56.5584C22.8896 56.5598 23.386 56.4605 23.8486 56.2662C24.3086 56.0613 24.7196 55.7594 25.0538 55.381L26.259 57.479ZM29.6019 58.6741H27.3762V46.4666H29.6019V58.6741ZM33.9124 47.5643C33.9133 47.7657 33.8713 47.9649 33.7892 48.1485C33.7129 48.323 33.6056 48.482 33.4725 48.6177C33.3312 48.7519 33.1674 48.8598 32.9887 48.9364C32.8084 49.0153 32.6135 49.0545 32.4169 49.0515C32.2176 49.0537 32.0199 49.0145 31.8363 48.9364C31.6603 48.8597 31.4994 48.7517 31.3613 48.6177C31.234 48.4773 31.1274 48.3193 31.0446 48.1485C30.9695 47.963 30.9306 47.7646 30.9302 47.5643C30.9325 47.3699 30.9713 47.1776 31.0446 46.9977C31.123 46.8244 31.2301 46.6658 31.3613 46.5285C31.6441 46.2508 32.0218 46.0925 32.4169 46.0859C32.6145 46.0818 32.8103 46.1242 32.9887 46.2099C33.1671 46.2817 33.3296 46.3883 33.467 46.5235C33.6044 46.6587 33.7139 46.8199 33.7892 46.9977C33.8694 47.1758 33.9114 47.3688 33.9124 47.5643ZM33.5253 58.6741H31.2997V49.9367H33.5253V58.6741ZM37.4488 61.9672H35.188V49.9367H35.7246L36.6043 50.9902C36.8128 50.7993 37.0332 50.6219 37.264 50.459C37.4909 50.288 37.7358 50.1426 37.9942 50.0253C38.2538 49.9015 38.5249 49.8037 38.8035 49.7331C39.0735 49.6625 39.3514 49.6268 39.6304 49.6269C40.2328 49.6161 40.8312 49.7275 41.3898 49.9544C41.9122 50.1537 42.3904 50.4545 42.7973 50.8397C43.2086 51.259 43.5344 51.7552 43.7562 52.3003C43.9912 52.9005 44.1077 53.5409 44.0993 54.1859C44.1092 54.8483 43.9927 55.5064 43.7562 56.1246C43.5386 56.672 43.2123 57.169 42.7973 57.5853C42.3934 57.9742 41.9143 58.2755 41.3898 58.4705C40.8293 58.6902 40.2319 58.7984 39.6304 58.7892C39.4352 58.7902 39.2405 58.7694 39.0498 58.7272C38.8586 58.6804 38.6705 58.6212 38.4868 58.5502C38.3021 58.4794 38.1173 58.3908 37.9326 58.3023L37.4136 58.019L37.4488 61.9672ZM41.8473 54.1948C41.852 53.856 41.7923 53.5195 41.6713 53.2033C41.568 52.9239 41.406 52.6703 41.1963 52.4597C40.9978 52.2522 40.758 52.0894 40.4925 51.9817C40.2121 51.8724 39.9135 51.8183 39.6128 51.8223C39.3121 51.8169 39.0132 51.8711 38.7331 51.9817C38.4704 52.0895 38.2334 52.2525 38.0382 52.4597C37.8286 52.6721 37.664 52.925 37.5543 53.2033C37.3317 53.8392 37.3317 54.5326 37.5543 55.1685C37.6663 55.4456 37.8306 55.6981 38.0382 55.9121C38.2331 56.122 38.4699 56.2879 38.7331 56.399C39.0113 56.517 39.3111 56.5743 39.6128 56.5672C39.9145 56.573 40.214 56.5157 40.4925 56.399C40.7584 56.288 40.9981 56.1222 41.1963 55.9121C41.4041 55.7 41.5659 55.4468 41.6713 55.1685C41.7979 54.8713 41.8694 54.5533 41.8825 54.2302L41.8473 54.1948ZM51.6735 57.6207C51.4925 57.7858 51.3016 57.9396 51.1017 58.081C50.8989 58.2214 50.6873 58.3486 50.4683 58.4617C50.2479 58.5636 50.0181 58.6437 49.7822 58.7007C49.5506 58.7678 49.3106 58.8006 49.0696 58.798C48.5517 58.8041 48.0376 58.7079 47.5565 58.5148C47.0953 58.3292 46.6741 58.0557 46.3161 57.7092C45.9566 57.3406 45.6727 56.9044 45.4804 56.4256C45.2778 55.8854 45.1764 55.3121 45.1813 54.7348V49.9367H47.3894V54.7702C47.3851 55.0387 47.4298 55.3058 47.5213 55.558C47.6024 55.7747 47.725 55.9732 47.882 56.1423C48.0316 56.2959 48.2114 56.4165 48.4098 56.4964C48.6198 56.5799 48.8438 56.622 49.0696 56.6203C49.2906 56.6211 49.5083 56.5663 49.703 56.461C49.9089 56.3578 50.0915 56.2132 50.2396 56.0361C50.3929 55.8641 50.515 55.6663 50.6003 55.4518C50.6801 55.2334 50.7217 55.0028 50.7234 54.7702V49.9367H52.9403V58.6741H52.4037L51.6735 57.6207ZM56.8637 58.6387H54.6645V46.4666H56.8989L56.8637 58.6387ZM60.7784 58.6387H58.5879V46.4666H60.8136V54.1682L64.1125 49.9544H66.6636L63.787 53.5928L66.6636 58.6741H64.1125L62.3531 55.5049L60.8136 57.541L60.7784 58.6387ZM75.6277 58.6387H75.1263L74.2466 57.4436C74.0302 57.6325 73.8041 57.8098 73.5692 57.9748C73.3375 58.1432 73.09 58.2885 72.8303 58.4085C72.5733 58.5291 72.3052 58.624 72.0297 58.6918C71.7597 58.7625 71.4818 58.7982 71.2028 58.798C70.602 58.8094 70.0047 58.7042 69.4434 58.4882C68.9073 58.2884 68.4197 57.9758 68.0131 57.5712C67.6066 57.1667 67.2905 56.6795 67.0858 56.1423C66.8406 55.5233 66.7209 54.8611 66.734 54.1948C66.7248 53.5546 66.8445 52.9193 67.0858 52.3269C67.3058 51.786 67.633 51.296 68.0474 50.8865C68.4618 50.4771 68.9548 50.157 69.4962 49.9456C70.0521 49.7046 70.6504 49.5782 71.2556 49.5738C71.5522 49.5699 71.848 49.6056 72.1353 49.68C72.4109 49.7511 72.679 49.8489 72.9358 49.9721C73.1959 50.095 73.4434 50.2433 73.6748 50.4148C73.909 50.58 74.1324 50.7604 74.3434 50.9548L75.2231 49.919H75.6541L75.6277 58.6387ZM73.4021 54.2125C73.402 53.9077 73.3391 53.6063 73.2173 53.3272C73.0002 52.7674 72.5829 52.3096 72.0473 52.0436C71.7746 51.9056 71.4729 51.8358 71.1676 51.84C70.8679 51.8383 70.5703 51.8893 70.2879 51.9905C70.0272 52.0941 69.7906 52.2508 69.593 52.4508C69.3917 52.6681 69.2361 52.924 69.1355 53.2033C69.0142 53.5255 68.9546 53.8679 68.9596 54.2125C68.9555 54.5598 69.0152 54.9049 69.1355 55.2305C69.2382 55.5061 69.3936 55.7588 69.593 55.9741C69.7906 56.1741 70.0272 56.3309 70.2879 56.4344C70.5703 56.5357 70.8679 56.5866 71.1676 56.5849C71.4722 56.5922 71.774 56.5254 72.0473 56.3902C72.3135 56.2601 72.5524 56.0797 72.7511 55.859C72.9509 55.6357 73.1089 55.3777 73.2173 55.0977C73.3489 54.8267 73.4237 54.5315 73.4373 54.2302L73.4021 54.2125ZM80.0526 57.842C80.0533 58.033 80.0175 58.2223 79.947 58.3997C79.8796 58.5621 79.781 58.7095 79.6567 58.8335C79.5331 58.9642 79.3832 59.0668 79.2169 59.1344C78.8699 59.2757 78.4819 59.2757 78.1349 59.1344C77.9671 59.0648 77.8147 58.9625 77.6862 58.8335C77.5716 58.7154 77.4792 58.5775 77.4135 58.4262C77.3431 58.2489 77.3072 58.0595 77.3079 57.8685C77.3072 57.6833 77.3431 57.4997 77.4135 57.3285C77.4832 57.1621 77.5852 57.0113 77.7136 56.8851C77.842 56.759 77.9942 56.6599 78.1613 56.5938C78.3317 56.5179 78.5159 56.4787 78.7023 56.4787C78.8886 56.4787 79.0729 56.5179 79.2433 56.5938C79.4073 56.6617 79.5567 56.7609 79.6831 56.8859C79.8056 57.0146 79.904 57.1646 79.9734 57.3285C80.0315 57.4932 80.0583 57.6674 80.0526 57.842V57.842ZM90.2659 54.2302C90.2706 54.8728 90.1511 55.5102 89.914 56.1069C89.7001 56.64 89.3865 57.1268 88.9904 57.541C88.5858 57.9423 88.1078 58.261 87.5828 58.4794C87.0242 58.7063 86.4258 58.8177 85.8234 58.8069C85.2202 58.8174 84.6214 58.7029 84.064 58.4705C83.5536 58.2484 83.0883 57.9333 82.6917 57.541C82.3134 57.1148 82.0153 56.6228 81.812 56.0892C81.5787 55.4978 81.4621 54.8664 81.4689 54.2302V46.4666H83.6858V50.5476C83.8072 50.3898 83.9527 50.2524 84.1168 50.1403C84.2898 50.0195 84.4757 49.9185 84.671 49.8394C84.8708 49.7646 85.0769 49.7083 85.2868 49.6712C85.4894 49.6291 85.6958 49.6083 85.9026 49.6092C86.5066 49.5997 87.1058 49.7173 87.662 49.9544C88.1916 50.1763 88.6705 50.5047 89.0695 50.9194C89.4763 51.3438 89.7988 51.8426 90.0196 52.3889C90.2298 52.9787 90.3224 53.6043 90.2923 54.2302H90.2659ZM88.0315 54.2302C88.0369 53.9086 87.977 53.5893 87.8555 53.2918C87.7478 53.0114 87.5898 52.7534 87.3893 52.5305C87.186 52.3202 86.944 52.1519 86.6767 52.0348C86.3996 51.9127 86.0995 51.8524 85.797 51.8577C85.492 51.8552 85.1906 51.9249 84.9173 52.0613C84.6552 52.1938 84.4196 52.3739 84.2224 52.5925C84.0182 52.8108 83.857 53.0662 83.7473 53.3449C83.6395 53.6276 83.5829 53.9274 83.5802 54.2302C83.5805 54.5504 83.6371 54.8681 83.7473 55.1685C83.857 55.4473 84.0182 55.7026 84.2224 55.921C84.4205 56.1316 84.6563 56.3028 84.9173 56.4256C85.1953 56.545 85.4948 56.6053 85.797 56.6026C86.0995 56.608 86.3996 56.5476 86.6767 56.4256C86.9444 56.3053 87.1864 56.1339 87.3893 55.921C87.5878 55.7 87.7457 55.4452 87.8555 55.1685C87.9861 54.873 88.0549 54.5536 88.0579 54.2302H88.0315ZM93.6088 61.9672V59.7541H94.8404C95.053 59.7548 95.2643 59.7189 95.4649 59.6479C95.6633 59.5792 95.8501 59.4807 96.0192 59.3558C96.1896 59.2314 96.3408 59.0822 96.4678 58.9131C96.6003 58.7441 96.707 58.5561 96.7845 58.3554L96.0455 58.6653C95.8059 58.766 95.5487 58.8172 95.289 58.8158C94.7739 58.8228 94.2625 58.7265 93.7847 58.5325C93.3213 58.3513 92.8993 58.0772 92.5443 57.7269C92.1662 57.3647 91.8667 56.9277 91.6646 56.4433C91.4577 55.9043 91.3562 55.3302 91.3655 54.7525V49.9367H93.5648V54.7702C93.5599 55.0474 93.6046 55.3233 93.6967 55.5846C93.7731 55.7862 93.891 55.9693 94.0426 56.1218C94.1942 56.2744 94.3761 56.393 94.5764 56.4698C94.7875 56.5487 95.0111 56.5877 95.2362 56.5849C95.46 56.5857 95.6806 56.5309 95.8784 56.4256C96.08 56.3196 96.2592 56.1753 96.4062 56.0007C96.5632 55.8315 96.6858 55.633 96.7669 55.4164C96.8537 55.1997 96.8984 54.9684 96.8988 54.7348V49.9367H99.1245V57.541C99.122 58.1351 98.9993 58.7224 98.7638 59.2672C98.5432 59.7953 98.2202 60.2738 97.8137 60.6748C97.4107 61.0824 96.9326 61.4072 96.4062 61.6308C95.851 61.872 95.2515 61.9927 94.6468 61.9849L93.6088 61.9672Z" fill="#F8E541"/>
</svg>
