<svg width="23" height="24" viewBox="0 0 23 24" fill="none" xmlns="http://www.w3.org/2000/svg">
<g clip-path="url(#clip0)">
<path d="M19.5 24H3C2.17188 24 1.46484 23.707 0.878906 23.1211C0.292969 22.5352 0 21.8281 0 21V4.5C0 3.67188 0.292969 2.96484 0.878906 2.37891C1.46484 1.79297 2.17188 1.5 3 1.5V4.5C3 4.92188 3.14844 5.27734 3.44531 5.56641C3.74219 5.85547 4.09375 6 4.5 6H6C6.42188 6 6.77734 5.85547 7.06641 5.56641C7.35547 5.27734 7.5 4.92188 7.5 4.5V1.5H15V4.5C15 4.92188 15.1484 5.27734 15.4453 5.56641C15.7422 5.85547 16.0938 6 16.5 6H18C18.4219 6 18.7773 5.85547 19.0664 5.56641C19.3555 5.27734 19.5 4.92188 19.5 4.5V1.5C20.3281 1.5 21.0352 1.79297 21.6211 2.37891C22.207 2.96484 22.5 3.67188 22.5 4.5V21C22.5 21.8281 22.207 22.5352 21.6211 23.1211C21.0352 23.707 20.3281 24 19.5 24ZM18.75 9H3.75C3.54688 9 3.37109 9.07422 3.22266 9.22266C3.07422 9.37109 3 9.54688 3 9.75C3 9.95312 3.07422 10.1289 3.22266 10.2773C3.37109 10.4258 3.54688 10.5 3.75 10.5H18.75C18.9531 10.5 19.1289 10.4258 19.2773 10.2773C19.4258 10.1289 19.5 9.95312 19.5 9.75C19.5 9.54688 19.4258 9.37109 19.2773 9.22266C19.1289 9.07422 18.9531 9 18.75 9ZM18.75 13.5H3.75C3.54688 13.5 3.37109 13.5742 3.22266 13.7227C3.07422 13.8711 3 14.0469 3 14.25C3 14.4531 3.07422 14.6289 3.22266 14.7773C3.37109 14.9258 3.54688 15 3.75 15H18.75C18.9531 15 19.1289 14.9258 19.2773 14.7773C19.4258 14.6289 19.5 14.4531 19.5 14.25C19.5 14.0469 19.4258 13.8711 19.2773 13.7227C19.1289 13.5742 18.9531 13.5 18.75 13.5ZM18.75 18H3.75C3.54688 18 3.37109 18.0742 3.22266 18.2227C3.07422 18.3711 3 18.5469 3 18.75C3 18.9531 3.07422 19.1289 3.22266 19.2773C3.37109 19.4258 3.54688 19.5 3.75 19.5H18.75C18.9531 19.5 19.1289 19.4258 19.2773 19.2773C19.4258 19.1289 19.5 18.9531 19.5 18.75C19.5 18.5469 19.4258 18.3711 19.2773 18.2227C19.1289 18.0742 18.9531 18 18.75 18ZM17.25 4.5C17.0469 4.5 16.8711 4.42578 16.7227 4.27734C16.5742 4.12891 16.5 3.95312 16.5 3.75V0.75C16.5 0.546875 16.5742 0.371094 16.7227 0.222656C16.8711 0.0742188 17.0469 0 17.25 0C17.4531 0 17.6289 0.0742188 17.7773 0.222656C17.9258 0.371094 18 0.546875 18 0.75V3.75C18 3.95312 17.9258 4.12891 17.7773 4.27734C17.6289 4.42578 17.4531 4.5 17.25 4.5ZM5.25 4.5C5.04688 4.5 4.87109 4.42578 4.72266 4.27734C4.57422 4.12891 4.5 3.95312 4.5 3.75V0.75C4.5 0.546875 4.57422 0.371094 4.72266 0.222656C4.87109 0.0742188 5.04688 0 5.25 0C5.45312 0 5.62891 0.0742188 5.77734 0.222656C5.92578 0.371094 6 0.546875 6 0.75V3.75C6 3.95312 5.92578 4.12891 5.77734 4.27734C5.62891 4.42578 5.45312 4.5 5.25 4.5Z" fill="white"/>
</g>
<defs>
<clipPath id="clip0">
<rect width="22.5" height="24" fill="white"/>
</clipPath>
</defs>
</svg>
