<svg width="13" height="18" viewBox="0 0 13 18" fill="none" xmlns="http://www.w3.org/2000/svg">
<path opacity="0.7" d="M6.44984 0.75C7.004 0.75 7.63679 0.999882 8.30671 1.53345C8.97271 2.06391 9.6275 2.83847 10.2062 3.78357C11.3669 5.67924 12.1523 8.14677 12.1523 10.4058C12.1523 12.1623 11.6358 13.7367 10.687 14.8584C9.75131 15.9647 8.35181 16.6849 6.44984 16.6849C4.54621 16.6849 3.14756 15.9646 2.21309 14.8587C1.26538 13.7372 0.75 12.1628 0.75 10.4058C0.75 8.14662 1.53479 5.67903 2.69477 3.7834C3.2731 2.83831 3.92754 2.06379 4.59329 1.53339C5.26292 0.999876 5.89558 0.75 6.44984 0.75Z" stroke="white" stroke-width="1.5"/>
</svg>
