<svg width="27" height="24" viewBox="0 0 27 24" fill="none" xmlns="http://www.w3.org/2000/svg">
<path d="M13.5 17.3333C15.7367 17.3333 17.55 15.5425 17.55 13.3333C17.55 11.1242 15.7367 9.33331 13.5 9.33331C11.2632 9.33331 9.44995 11.1242 9.44995 13.3333C9.44995 15.5425 11.2632 17.3333 13.5 17.3333Z" fill="white"/>
<path d="M24.3 2.66667H20.0205L18.3465 0.866667C18.0949 0.593858 17.7885 0.375876 17.4468 0.226648C17.1051 0.0774203 16.7356 0.000227026 16.362 0H10.638C9.882 0 9.153 0.32 8.64 0.866667L6.9795 2.66667H2.7C1.215 2.66667 0 3.86667 0 5.33333V21.3333C0 22.8 1.215 24 2.7 24H24.3C25.785 24 27 22.8 27 21.3333V5.33333C27 3.86667 25.785 2.66667 24.3 2.66667ZM13.5 20C9.774 20 6.75 17.0133 6.75 13.3333C6.75 9.65333 9.774 6.66667 13.5 6.66667C17.226 6.66667 20.25 9.65333 20.25 13.3333C20.25 17.0133 17.226 20 13.5 20Z" fill="white"/>
</svg>
