<?xml version="1.0" encoding="utf-8"?>
<!-- Generator: Adobe Illustrator 23.0.6, SVG Export Plug-In . SVG Version: 6.00 Build 0)  -->
<svg version="1.1" id="Layer_1" xmlns="http://www.w3.org/2000/svg" xmlns:xlink="http://www.w3.org/1999/xlink" x="0px" y="0px"
	 viewBox="0 0 16 16" style="enable-background:new 0 0 16 16;" xml:space="preserve">
<path d="M10.9,7.5H8.5V5.1C8.5,5.1,8.4,5,8.4,5H7.6C7.6,5,7.5,5.1,7.5,5.1v2.4H5.1C5.1,7.5,5,7.6,5,7.6v0.8c0,0.1,0.1,0.1,0.1,0.1
	h2.4v2.4c0,0.1,0.1,0.1,0.1,0.1h0.8c0.1,0,0.1-0.1,0.1-0.1V8.5h2.4c0.1,0,0.1-0.1,0.1-0.1V7.6C11,7.6,10.9,7.5,10.9,7.5z"/>
<path d="M8,1C4.1,1,1,4.1,1,8c0,3.9,3.1,7,7,7c3.9,0,7-3.1,7-7C15,4.1,11.9,1,8,1z M8,13.8c-3.2,0-5.8-2.6-5.8-5.8
	c0-3.2,2.6-5.8,5.8-5.8c3.2,0,5.8,2.6,5.8,5.8C13.8,11.2,11.2,13.8,8,13.8z"/>
</svg>
