<svg width="24" height="18" viewBox="0 0 24 18" fill="none" xmlns="http://www.w3.org/2000/svg">
<path d="M19.5771 4.625L15.3715 9H18.5257C18.5257 10.7405 17.8611 12.4097 16.678 13.6404C15.495 14.8711 13.8904 15.5625 12.2174 15.5625C11.166 15.5625 10.1462 15.2891 9.2735 14.7969L7.73848 16.3938C9.07699 17.28 10.6308 17.7505 12.2174 17.75C14.4481 17.75 16.5875 16.8281 18.1649 15.1872C19.7423 13.5462 20.6284 11.3206 20.6284 9H23.7826L19.5771 4.625ZM5.90908 9C5.90908 7.25952 6.5737 5.59032 7.75674 4.35961C8.93977 3.1289 10.5443 2.4375 12.2174 2.4375C13.2688 2.4375 14.2886 2.71094 15.1613 3.20312L16.6963 1.60625C15.3578 0.720042 13.804 0.249541 12.2174 0.25C9.98662 0.25 7.84724 1.17187 6.26986 2.81282C4.69247 4.45376 3.80631 6.67936 3.80631 9H0.652161L4.85769 13.375L9.06323 9" fill="#121212"/>
</svg>
