<svg width="36" height="21" viewBox="0 0 36 21" fill="none" xmlns="http://www.w3.org/2000/svg">
<path d="M13.3391 14.7437C11.6774 14.7437 10.3345 16.1457 10.3345 17.8744C10.3345 19.5979 11.6774 21 13.3391 21C15.0008 21 16.3436 19.5979 16.3436 17.8744C16.3436 16.1457 15.0008 14.7437 13.3391 14.7437ZM13.3391 19.4372C12.5082 19.4372 11.8367 18.7336 11.8367 17.8743C11.8367 17.01 12.5082 16.3114 13.3391 16.3114C14.1699 16.3114 14.8414 17.01 14.8414 17.8743C14.8413 18.7336 14.1699 19.4372 13.3391 19.4372ZM36 12.4313V15.7688C36 16.6014 35.3512 17.2763 34.5508 17.2763H33.0002C32.7201 15.2763 31.0632 13.7386 29.0634 13.7386C27.0684 13.7386 25.4115 15.2764 25.1313 17.2763H17.2721C16.9919 15.2763 15.335 13.7386 13.34 13.7386C11.345 13.7386 9.68812 15.2764 9.408 17.2763H7.46612C6.66576 17.2763 6.017 16.6014 6.017 15.7688V12.4313H36ZM29.0672 14.7437C27.4055 14.7437 26.0578 16.1457 26.0578 17.8744C26.0578 19.5979 27.4056 21 29.0672 21C30.7241 21 32.0718 19.5979 32.0718 17.8744C32.0718 16.1457 30.7241 14.7437 29.0672 14.7437ZM29.0672 19.4372C28.2364 19.4372 27.5649 18.7336 27.5649 17.8743C27.5649 17.01 28.2364 16.3114 29.0672 16.3114C29.8932 16.3114 30.5695 17.01 30.5695 17.8743C30.5695 18.7336 29.8932 19.4372 29.0672 19.4372ZM35.429 9.07034L29.7339 3.21105C29.3716 2.83918 28.8837 2.62812 28.3765 2.62812H25.5024V1.50749C25.5024 0.673368 24.8551 0 24.0532 0H7.46512C6.66806 0 6.016 0.67343 6.016 1.50749V1.7437L0.135294 2.44876L10.5556 3.86037L0 4.95119L10.5185 6.50691L0 7.45564L6.01635 8.63606L6.01594 11.598H35.999V10.4974C35.999 9.95973 35.7913 9.44723 35.429 9.07034ZM32.9461 9.26628H27.4345C27.3089 9.26628 27.2075 9.16079 27.2075 9.03014V4.603C27.2075 4.47236 27.3089 4.3668 27.4345 4.3668H28.4828C28.5407 4.3668 28.5987 4.39195 28.6422 4.43215L33.1008 8.85929C33.2504 9.00499 33.1489 9.26628 32.9461 9.26628Z" fill="white"/>
</svg>
