<svg width="36" height="35" viewBox="0 0 36 35" fill="none" xmlns="http://www.w3.org/2000/svg">
<path d="M0 2C0 0.89543 0.895431 0 2 0L33.3139 0C34.4185 0 35.3139 0.895431 35.3139 2L35.3139 33C35.3139 34.1046 34.4185 35 33.3139 35L2 35C0.895434 35 0 34.1046 0 33L0 2Z" fill="#3B5998"/>
<g clip-path="url(#clip0)">
<path fill-rule="evenodd" clip-rule="evenodd" d="M23.7265 7.43783C23.3531 7.38861 22.0656 7.29199 20.5721 7.29199C17.4454 7.29199 15.2999 8.9554 15.2999 12.0042V14.6311H11.7712V18.1976H15.2999L15.2999 27.3441H19.5339L19.5339 18.1976H23.0496L23.5894 14.6311L19.5339 14.6311V12.3524C19.5339 11.3288 19.853 10.6179 21.5552 10.6179H23.7265V7.43783Z" fill="white"/>
</g>
<defs>
<clipPath id="clip0">
<rect width="13.2427" height="20.4167" fill="white" transform="translate(10.2998 7.29199)"/>
</clipPath>
</defs>
</svg>
