<svg width="37" height="35" viewBox="0 0 37 35" fill="none" xmlns="http://www.w3.org/2000/svg">
<path d="M0.843018 2C0.843018 0.89543 1.73845 0 2.84302 0L34.1569 0C35.2615 0 36.1569 0.895431 36.1569 2L36.1569 33C36.1569 34.1046 35.2615 35 34.1569 35L2.84302 35C1.73845 35 0.843018 34.1046 0.843018 33L0.843018 2Z" fill="#65BC54"/>
<path fill-rule="evenodd" clip-rule="evenodd" d="M30.2712 17.1997C30.2712 23.4764 25.0963 28.566 18.7133 28.566C16.7609 28.5687 14.8396 28.0821 13.1278 27.1514L6.72864 29.1668L8.8151 23.0681C7.7281 21.3004 7.15428 19.2698 7.15682 17.1997C7.15535 10.9216 12.3303 5.8335 18.7133 5.8335C25.0963 5.8335 30.2712 10.9231 30.2712 17.1997ZM18.7133 7.64329C13.3559 7.64329 8.99756 11.9308 8.99756 17.1997C8.99593 19.2152 9.64452 21.1784 10.8486 22.8027L9.63468 26.3508L13.3677 25.1754C14.9552 26.2091 16.8138 26.7588 18.7133 26.7562C24.0722 26.7562 28.4305 22.4687 28.4305 17.1997C28.4305 11.9308 24.0722 7.64329 18.7133 7.64329ZM24.5504 19.8175C24.4783 19.7008 24.2899 19.6308 24.006 19.4922C23.7234 19.3537 22.33 18.6785 22.0711 18.5866C21.8106 18.4933 21.6223 18.4466 21.4325 18.7252C21.1497 19.1022 20.8502 19.4667 20.5349 19.8175C20.3701 20.0041 20.2053 20.026 19.9228 19.8875C19.6388 19.7475 18.7265 19.4543 17.6436 18.505C17.0253 17.9426 16.4947 17.2924 16.0692 16.5756C15.9029 16.297 16.05 16.1454 16.1928 16.0068C16.3193 15.8814 16.4753 15.6816 16.618 15.5197C16.7593 15.3564 16.8063 15.2412 16.9005 15.0545C16.9947 14.8679 16.9476 14.706 16.877 14.566C16.8063 14.4275 16.2398 13.0566 16.003 12.4981C15.7675 11.941 15.5321 12.0343 15.3658 12.0343C15.201 12.0343 15.0127 12.011 14.8229 12.011C14.6797 12.0147 14.5388 12.0475 14.4089 12.1075C14.2791 12.1675 14.163 12.2533 14.068 12.3595C13.8076 12.6366 13.0763 13.3118 13.0763 14.6827C13.0763 16.0535 14.0916 17.3777 14.2328 17.5643C14.3741 17.7495 16.1928 20.6545 19.0723 21.7702C21.9533 22.8843 21.9533 22.5139 22.4713 22.4658C22.9907 22.4206 24.1487 21.7935 24.3841 21.1416C24.6195 20.4912 24.6195 19.9327 24.5504 19.8175Z" fill="white"/>
</svg>
