<svg width="25" height="27" viewBox="0 0 25 27" fill="none" xmlns="http://www.w3.org/2000/svg">
<g opacity="0.7">
<path d="M21.128 16.6213L17.0795 11.5138L20.6755 9.31241C21.0268 9.09739 21.1492 8.61736 20.9488 8.24039C20.7483 7.86337 20.3009 7.73207 19.9496 7.94715C19.649 8.1312 12.8348 12.3026 12.5001 12.5075C12.1638 12.3016 5.34794 8.12921 5.05053 7.94715C4.69916 7.73212 4.25194 7.86327 4.05141 8.24039C3.85101 8.61736 3.97328 9.09734 4.3247 9.31241L7.92064 11.5138L3.87211 16.6213C3.61005 16.9519 3.64735 17.4478 3.95551 17.7291C4.26361 18.0104 4.72601 17.9702 4.98793 17.6396L9.21532 12.3064L12.1371 14.095C12.3621 14.2327 12.6381 14.2327 12.863 14.095L15.7848 12.3064L20.0122 17.6396C20.2743 17.9704 20.7367 18.0102 21.0446 17.7291C21.3528 17.4479 21.3901 16.9519 21.128 16.6213Z" fill="#121212"/>
<path d="M22.8027 4.24414H2.19727C0.985693 4.24414 0 5.30181 0 6.60185V20.2241C0 21.5242 0.985693 22.5818 2.19727 22.5818H22.8027C24.0143 22.5818 25 21.5242 25 20.2241V6.60185C25 5.30181 24.0143 4.24414 22.8027 4.24414ZM23.5352 20.2241C23.5352 20.6575 23.2066 21.01 22.8027 21.01H2.19727C1.79341 21.01 1.46484 20.6575 1.46484 20.2241V6.60185C1.46484 6.1685 1.79341 5.81594 2.19727 5.81594H22.8027C23.2066 5.81594 23.5352 6.1685 23.5352 6.60185V20.2241Z" fill="#121212"/>
</g>
</svg>
