<svg width="21" height="21" viewBox="0 0 21 21" fill="none" xmlns="http://www.w3.org/2000/svg">
<path d="M0 2C0 0.89543 0.895431 0 2 0L18.1794 0C19.284 0 20.1794 0.895431 20.1794 2L20.1794 18.635C20.1794 19.7396 19.284 20.635 18.1794 20.635L2 20.635C0.895431 20.635 0 19.7396 0 18.635L0 2Z" fill="#7B519D"/>
<path fill-rule="evenodd" clip-rule="evenodd" d="M15.4995 13.3906C15.0925 13.0544 14.657 12.7517 14.229 12.4431C13.3747 11.8258 12.5936 11.7785 11.9563 12.7698C11.5981 13.327 11.0978 13.3519 10.574 13.1068C9.12949 12.4345 8.01458 11.3967 7.36127 9.88864C7.07204 9.22058 7.0754 8.62217 7.75225 8.15014C8.10959 7.9008 8.4703 7.60503 8.44171 7.05993C8.40388 6.34802 6.72394 3.97069 6.06054 3.71963C5.79346 3.61948 5.50028 3.61948 5.23319 3.71963C3.67685 4.25614 3.03196 5.57163 3.64911 7.12957C5.49048 11.7767 8.73011 15.0113 13.1914 16.9854C13.4454 17.0971 13.7279 17.1427 13.8708 17.1831C14.8865 17.1934 16.0762 16.1875 16.4201 15.1901C16.7506 14.2297 16.0519 13.8488 15.4986 13.3906H15.4995ZM10.4975 4.19596C13.759 4.71183 15.2632 6.30589 15.6785 9.68143C15.7164 9.99354 15.6029 10.463 16.0367 10.4716C16.4891 10.4802 16.3798 10.0176 16.384 9.70637C16.4218 6.526 13.7245 3.57863 10.5925 3.47029C10.3562 3.50469 9.86688 3.30264 9.83577 3.84688C9.81559 4.21401 10.2276 4.15383 10.4975 4.19596Z" fill="white"/>
<path fill-rule="evenodd" clip-rule="evenodd" d="M11.1356 5.12163C10.822 5.08294 10.4083 4.93076 10.3344 5.37871C10.2587 5.84815 10.7194 5.80001 11.0162 5.86879C13.03 6.33136 13.7321 7.08453 14.0633 9.13772C14.1113 9.43779 14.0154 9.90293 14.5106 9.82555C14.8772 9.76881 14.7444 9.36986 14.7755 9.136C14.7923 7.1645 13.1477 5.37011 11.1356 5.12163Z" fill="white"/>
<path fill-rule="evenodd" clip-rule="evenodd" d="M11.3206 6.73373C11.1112 6.73889 10.9061 6.76211 10.8287 6.99167C10.7135 7.33559 10.9565 7.41813 11.2037 7.4594C12.0302 7.59525 12.4649 8.09564 12.5473 8.94254C12.57 9.17296 12.7113 9.35868 12.9274 9.33289C13.2267 9.29591 13.2545 9.0225 13.2452 8.76198C13.2595 7.81105 12.2135 6.71138 11.3206 6.73373Z" fill="white"/>
</svg>
