<svg width="18" height="18" viewBox="0 0 18 18" fill="none" xmlns="http://www.w3.org/2000/svg">
<path opacity="0.7" fill-rule="evenodd" clip-rule="evenodd" d="M1.45562 17.8867C1.45562 17.8867 0 17.8867 0 16.3962C0 14.9056 1.45562 10.4339 8.73375 10.4339C16.0119 10.4339 17.4675 14.9056 17.4675 16.3962C17.4675 17.8867 16.0119 17.8867 16.0119 17.8867H1.45562ZM8.73375 8.94336C9.89192 8.94336 11.0026 8.47224 11.8216 7.63363C12.6405 6.79503 13.1006 5.65764 13.1006 4.47168C13.1006 3.28572 12.6405 2.14833 11.8216 1.30972C11.0026 0.471122 9.89192 0 8.73375 0C7.57558 0 6.46485 0.471122 5.6459 1.30972C4.82696 2.14833 4.36687 3.28572 4.36687 4.47168C4.36687 5.65764 4.82696 6.79503 5.6459 7.63363C6.46485 8.47224 7.57558 8.94336 8.73375 8.94336Z" fill="white"/>
</svg>
