<?xml version="1.0" encoding="utf-8"?>
<!-- Generator: Adobe Illustrator 23.0.6, SVG Export Plug-In . SVG Version: 6.00 Build 0)  -->
<svg version="1.1" id="Layer_1" xmlns="http://www.w3.org/2000/svg" xmlns:xlink="http://www.w3.org/1999/xlink" x="0px" y="0px"
	 viewBox="0 0 18.1 18" style="enable-background:new 0 0 18.1 18;" xml:space="preserve">
<style type="text/css">
	.st0{opacity:0.7;fill:none;stroke:#FFFFFF;stroke-width:1.5;enable-background:new    ;}
</style>
<path class="st0" d="M9,0.8c0.6,0,1.2,0.2,1.9,0.8c0.7,0.5,1.3,1.3,1.9,2.3c1.2,1.9,1.9,4.4,1.9,6.6c0,1.8-0.5,3.3-1.5,4.5
	c-0.9,1.1-2.3,1.8-4.2,1.8c-1.9,0-3.3-0.7-4.2-1.8c-0.9-1.1-1.5-2.7-1.5-4.5c0-2.3,0.8-4.7,1.9-6.6c0.6-0.9,1.2-1.7,1.9-2.3
	C7.8,1,8.5,0.8,9,0.8z"/>
</svg>
