<svg width="18" height="18" viewBox="0 0 18 18" fill="none" xmlns="http://www.w3.org/2000/svg">
<path opacity="0.7" d="M15.9388 13.0641C15.8548 12.9999 15.768 12.9335 15.6866 12.868C15.2552 12.5208 14.7962 12.2007 14.3523 11.8912C14.2602 11.8271 14.168 11.7628 14.0762 11.6984C13.5076 11.299 12.9964 11.1049 12.5134 11.1049C11.8629 11.1049 11.2958 11.4644 10.8277 12.1731C10.6203 12.4873 10.3687 12.6401 10.0586 12.6401C9.87526 12.6401 9.66689 12.5878 9.43943 12.4845C7.60404 11.6522 6.29345 10.3761 5.54403 8.69167C5.18175 7.87753 5.2992 7.34537 5.93679 6.91225C6.29887 6.6665 6.97281 6.20902 6.92507 5.33296C6.871 4.33812 4.67592 1.34468 3.75103 1.00472C3.35946 0.860719 2.94803 0.859383 2.52598 1.00138C1.46272 1.35881 0.699728 1.98652 0.319269 2.81652C-0.0483939 3.61854 -0.0318002 4.56023 0.367292 5.53982C1.52097 8.37207 3.14297 10.8414 5.18843 12.8792C7.19057 14.8739 9.65135 16.5079 12.5024 17.7355C12.7594 17.8461 13.0289 17.9064 13.2257 17.9504C13.2928 17.9655 13.3507 17.9783 13.3929 17.9899C13.4161 17.9962 13.44 17.9996 13.464 17.9999L13.4866 18C13.4866 18 13.4866 18 13.4867 18C14.8276 18 16.4377 16.7746 16.9322 15.3777C17.3654 14.1545 16.5744 13.5499 15.9388 13.0641Z" fill="white"/>
</svg>
