<svg width="30" height="30" viewBox="0 0 30 30" fill="none" xmlns="http://www.w3.org/2000/svg">
<g clip-path="url(#clip0)">
<path d="M25.8719 7.86113C24.8024 4.40574 22.0242 1.60467 18.6215 0.55086C14.998 -0.571269 11.2204 0.0378717 8.2574 2.22207C6.83767 3.26861 5.65958 4.64902 4.85058 6.21389C4.01445 7.83125 3.57253 9.65211 3.57253 11.4797C3.57253 13.9728 4.36115 16.3419 5.85318 18.3311L15.0012 30L24.1378 18.346L24.1493 18.3311C26.382 15.354 27.01 11.5378 25.8719 7.86113ZM22.748 17.2689L15.0012 27.1512L7.25427 17.2689C5.99597 15.588 5.33081 13.5862 5.33081 11.4797C5.33081 8.4016 6.81488 5.46986 9.30072 3.6374C11.8093 1.78813 15.0171 1.27537 18.1014 2.23045C20.9579 3.1151 23.2918 5.47186 24.1924 8.38098C25.1608 11.51 24.6343 14.7491 22.748 17.2689Z" fill="#F8E541"/>
<path d="M15.0002 6.00171C11.607 6.00171 8.84636 8.76236 8.84636 12.1556C8.84636 15.5488 11.607 18.3094 15.0002 18.3094C18.3934 18.3094 21.1541 15.5488 21.1541 12.1556C21.1541 8.76236 18.3934 6.00171 15.0002 6.00171ZM15.0002 16.5512C12.5765 16.5512 10.6046 14.5794 10.6046 12.1556C10.6046 9.73185 12.5764 7.75993 15.0002 7.75993C17.424 7.75993 19.3959 9.73179 19.3959 12.1556C19.3959 14.5793 17.424 16.5512 15.0002 16.5512Z" fill="#F8E541"/>
</g>
<defs>
<clipPath id="clip0">
<rect width="30" height="30" fill="white"/>
</clipPath>
</defs>
</svg>
