<svg width="23" height="23" viewBox="0 0 23 23" fill="none" xmlns="http://www.w3.org/2000/svg">
<path d="M10.2857 14.8571H10.2274C9.93978 14.8571 9.66392 14.7429 9.46052 14.5395C9.25712 14.3361 9.14286 14.0602 9.14286 13.7726C9.14286 13.4695 9.02245 13.1788 8.80812 12.9644C8.59379 12.7501 8.30311 12.6297 8 12.6297C7.6969 12.6297 7.40621 12.7501 7.19188 12.9644C6.97755 13.1788 6.85714 13.4695 6.85714 13.7726C6.85714 14.6664 7.21223 15.5237 7.84428 16.1557C8.47633 16.7878 9.33357 17.1429 10.2274 17.1429H10.2857V18.2857C10.2857 18.5888 10.4061 18.8795 10.6205 19.0938C10.8348 19.3082 11.1255 19.4286 11.4286 19.4286C11.7317 19.4286 12.0224 19.3082 12.2367 19.0938C12.451 18.8795 12.5714 18.5888 12.5714 18.2857V17.1429C13.4807 17.1429 14.3528 16.7816 14.9958 16.1387C15.6388 15.4957 16 14.6236 16 13.7143C16 12.805 15.6388 11.9329 14.9958 11.2899C14.3528 10.6469 13.4807 10.2857 12.5714 10.2857V8H12.5966C13.2137 8 13.7143 8.50057 13.7143 9.11772C13.7143 9.42082 13.8347 9.71151 14.049 9.92584C14.2633 10.1402 14.554 10.2606 14.8571 10.2606C15.1602 10.2606 15.4509 10.1402 15.6653 9.92584C15.8796 9.71151 16 9.42082 16 9.11772C16 8.21507 15.6414 7.34939 15.0032 6.71113C14.3649 6.07286 13.4992 5.71429 12.5966 5.71429H12.5714V4.57143C12.5714 4.26832 12.451 3.97763 12.2367 3.76331C12.0224 3.54898 11.7317 3.42857 11.4286 3.42857C11.1255 3.42857 10.8348 3.54898 10.6205 3.76331C10.4061 3.97763 10.2857 4.26832 10.2857 4.57143V5.71429C9.3764 5.71429 8.50433 6.07551 7.86135 6.71849C7.21837 7.36147 6.85714 8.23354 6.85714 9.14286C6.85714 10.0522 7.21837 10.9242 7.86135 11.5672C8.50433 12.2102 9.3764 12.5714 10.2857 12.5714V14.8571ZM12.5714 14.8571V12.5714C12.8745 12.5714 13.1652 12.6918 13.3796 12.9062C13.5939 13.1205 13.7143 13.4112 13.7143 13.7143C13.7143 14.0174 13.5939 14.3081 13.3796 14.5224C13.1652 14.7367 12.8745 14.8571 12.5714 14.8571ZM10.2857 8V10.2857C9.98261 10.2857 9.69192 10.1653 9.47759 9.95098C9.26327 9.73665 9.14286 9.44596 9.14286 9.14286C9.14286 8.83975 9.26327 8.54906 9.47759 8.33474C9.69192 8.12041 9.98261 8 10.2857 8ZM11.4286 22.8571C5.11657 22.8571 0 17.7406 0 11.4286C0 5.11657 5.11657 0 11.4286 0C17.7406 0 22.8571 5.11657 22.8571 11.4286C22.8571 17.7406 17.7406 22.8571 11.4286 22.8571Z" fill="white"/>
</svg>
