<svg width="19" height="20" viewBox="0 0 19 20" fill="none" xmlns="http://www.w3.org/2000/svg">
<path opacity="0.5" fill-rule="evenodd" clip-rule="evenodd" d="M13.5118 12.2667H12.6899L12.3817 11.9511C13.409 10.7939 14.0254 9.21596 14.0254 7.53282C14.0254 3.74574 11.0462 0.695042 7.34792 0.695042C3.64961 0.695042 0.67041 3.74574 0.67041 7.53282C0.67041 11.3199 3.64961 14.3706 7.34792 14.3706C8.99161 14.3706 10.5326 13.7394 11.6626 12.6874L11.9708 13.003V13.8446L17.1074 19.1044L18.6483 17.5265L13.5118 12.2667ZM7.26675 12.4663C4.60337 12.4663 2.47266 10.2845 2.47266 7.55717C2.47266 4.82985 4.60337 2.648 7.26675 2.648C9.93014 2.648 12.0609 4.82985 12.0609 7.55717C12.0609 10.2845 9.93014 12.4663 7.26675 12.4663Z" fill="#B8AC94"/>
</svg>
