<svg width="36" height="35" viewBox="0 0 36 35" fill="none" xmlns="http://www.w3.org/2000/svg">
<path d="M0.264648 2C0.264648 0.89543 1.16008 0 2.26465 0L33.5785 0C34.6831 0 35.5785 0.895431 35.5785 2L35.5785 33C35.5785 34.1046 34.6831 35 33.5785 35L2.26465 35C1.16008 35 0.264648 34.1046 0.264648 33L0.264648 2Z" fill="#00AFF0"/>
<path fill-rule="evenodd" clip-rule="evenodd" d="M29.0116 19.9764C29.1808 19.2181 29.2706 18.4306 29.2706 17.6227C29.2706 11.5633 24.2457 6.65017 18.0437 6.65017C17.3904 6.65017 16.7489 6.70559 16.125 6.81059C15.0854 6.17 13.8854 5.83146 12.6613 5.83351C9.06514 5.83351 6.15027 8.68309 6.15027 12.1977C6.15027 13.3716 6.47692 14.4727 7.04489 15.4162C6.89289 16.142 6.81647 16.8814 6.81682 17.6227C6.81682 23.6835 11.8432 28.4143 18.0437 28.4143C18.7456 28.4143 19.4327 28.3502 20.0993 28.2306C21.0159 28.7118 22.0636 29.1668 23.1775 29.1668C26.7736 29.1668 29.6885 26.3187 29.6885 22.8027C29.6891 21.8211 29.4573 20.853 29.0116 19.9764ZM23.1642 22.1012C22.7316 22.7108 22.0974 23.1906 21.2617 23.5362C20.4274 23.8833 19.4386 24.0554 18.2953 24.0554C16.9225 24.0554 15.791 23.8191 14.8993 23.3466C14.2839 23.0203 13.7558 22.5534 13.3587 21.9845C12.9644 21.4158 12.7657 20.8645 12.7657 20.3264C12.7657 20.0158 12.8835 19.7504 13.1218 19.5287C13.243 19.4167 13.3854 19.3296 13.5407 19.2723C13.696 19.2149 13.8611 19.1886 14.0267 19.1948C14.3015 19.1866 14.5697 19.279 14.7801 19.4543C14.9861 19.6279 15.1627 19.8831 15.3069 20.2229C15.4834 20.6283 15.6747 20.9666 15.8807 21.2364C16.0852 21.5062 16.3751 21.7323 16.7474 21.9073C17.1211 22.0823 17.6111 22.1698 18.2188 22.1698C19.0516 22.1698 19.7299 21.9948 20.2523 21.6389C20.7732 21.2845 21.0351 20.8412 21.0351 20.3118C21.0422 20.1212 21.0083 19.9313 20.9355 19.7548C20.8626 19.5782 20.7526 19.4191 20.6128 19.2881C20.3002 19.0081 19.9273 18.8026 19.5225 18.6873C18.9334 18.512 18.3364 18.3645 17.7332 18.2454C16.7356 18.0325 15.8984 17.7816 15.2274 17.4973C14.5535 17.2114 14.0179 16.822 13.6236 16.3306C13.2278 15.8348 13.0306 15.2237 13.0306 14.4931C13.0306 13.7931 13.2395 13.1748 13.6574 12.6337C14.0738 12.0912 14.6771 11.6741 15.4673 11.3825C16.2574 11.0908 17.1888 10.9464 18.2556 10.9464C19.109 10.9464 19.8476 11.0427 20.4701 11.2352C21.0925 11.4291 21.6089 11.6858 22.0195 12.0052C22.4314 12.326 22.7316 12.6614 22.92 13.0129C23.1112 13.3629 23.2054 13.7085 23.2054 14.041C23.2054 14.3473 23.0877 14.6243 22.8508 14.8679C22.7373 14.9876 22.5997 15.0822 22.4468 15.1455C22.2939 15.2089 22.1292 15.2395 21.9635 15.2354C21.6398 15.2354 21.3956 15.1625 21.2278 15.0152C21.0601 14.8679 20.8791 14.6273 20.6834 14.2933C20.4667 13.8585 20.1563 13.4761 19.7741 13.1733C19.4195 12.905 18.8515 12.7708 18.0672 12.7708C17.3404 12.7708 16.7533 12.9166 16.3074 13.2083C15.8616 13.4985 15.6379 13.85 15.6379 14.2583C15.6379 14.5106 15.7159 14.7308 15.866 14.9145C16.0176 15.1012 16.2265 15.2573 16.4928 15.39C16.7577 15.5227 17.0269 15.6262 17.2977 15.702C17.5699 15.7779 18.0187 15.8858 18.6455 16.0302C19.3633 16.1808 20.0734 16.3657 20.7732 16.5843C21.4088 16.7856 21.9503 17.032 22.3961 17.3179C22.8405 17.6066 23.1907 17.9741 23.4394 18.4145C23.6895 18.855 23.8146 19.396 23.8146 20.0348C23.8146 20.8004 23.5968 21.4902 23.1642 22.1012Z" fill="white"/>
</svg>
