<svg width="36" height="35" viewBox="0 0 36 35" fill="none" xmlns="http://www.w3.org/2000/svg">
<path d="M0.686035 2C0.686035 0.89543 1.58147 0 2.68604 0L33.9999 0C35.1045 0 35.9999 0.895431 35.9999 2L35.9999 33C35.9999 34.1046 35.1045 35 33.9999 35L2.68604 35C1.58147 35 0.686035 34.1046 0.686035 33L0.686035 2Z" fill="#64A9DC"/>
<path fill-rule="evenodd" clip-rule="evenodd" d="M28.5251 8.87995L7.67078 16.8512C6.24792 17.417 6.25528 18.2045 7.41181 18.5545L12.6118 20.1645L14.6026 26.2108C14.8439 26.8729 14.7247 27.1354 15.4266 27.1354C15.9681 27.1354 16.2064 26.8904 16.5095 26.5987C16.7008 26.4135 17.8382 25.3154 19.1095 24.0918L24.5199 28.0541C25.5146 28.5981 26.2341 28.3166 26.4813 27.1383L30.0333 10.5512C30.3967 9.10745 29.4771 8.4512 28.5251 8.87995ZM13.4284 19.7941L25.1512 12.4645C25.7368 12.1116 26.2738 12.3012 25.8324 12.6891L15.7944 21.6652L15.4045 25.7966L13.4284 19.7941Z" fill="white"/>
</svg>
