<svg width="36" height="35" viewBox="0 0 36 35" fill="none" xmlns="http://www.w3.org/2000/svg">
<path d="M0.421387 2C0.421387 0.89543 1.31682 0 2.42139 0L33.7353 0C34.8399 0 35.7353 0.895431 35.7353 2L35.7353 33C35.7353 34.1046 34.8399 35 33.7353 35L2.42139 35C1.31682 35 0.421387 34.1046 0.421387 33L0.421387 2Z" fill="#7B519D"/>
<path fill-rule="evenodd" clip-rule="evenodd" d="M27.5454 22.7122C26.8333 22.142 26.0711 21.6287 25.3221 21.1052C23.8272 20.0581 22.4602 19.9779 21.3449 21.6593C20.7181 22.6043 19.8426 22.6466 18.9259 22.231C16.398 21.0906 14.4469 19.3304 13.3036 16.7724C12.7975 15.6393 12.8034 14.6243 13.9878 13.8237C14.6132 13.4008 15.2444 12.8991 15.1944 11.9745C15.1282 10.767 12.1883 6.73474 11.0274 6.30891C10.56 6.13902 10.0469 6.13902 9.5795 6.30891C6.85591 7.2189 5.72734 9.45015 6.80736 12.0927C10.0297 19.9749 15.6991 25.4612 23.5064 28.8095C23.9508 28.9991 24.4452 29.0764 24.6953 29.1449C26.4728 29.1624 28.5548 27.4562 29.1566 25.7645C29.7349 24.1356 28.5122 23.4895 27.544 22.7122H27.5454ZM18.792 7.11682C24.4996 7.99182 27.132 10.6956 27.8589 16.421C27.9251 16.9504 27.7264 17.7466 28.4857 17.7612C29.2773 17.7758 29.086 16.9912 29.0934 16.4633C29.1596 11.0689 24.4393 6.06974 18.9583 5.88599C18.5448 5.94432 17.6885 5.60161 17.634 6.52474C17.5987 7.14745 18.3197 7.04536 18.792 7.11682Z" fill="white"/>
<path fill-rule="evenodd" clip-rule="evenodd" d="M19.9088 8.68761C19.36 8.62198 18.636 8.36386 18.5065 9.12365C18.3741 9.9199 19.1804 9.83823 19.6999 9.9549C23.2239 10.7395 24.4525 12.017 25.0323 15.4995C25.1161 16.0084 24.9484 16.7974 25.815 16.6661C26.4566 16.5699 26.2241 15.8932 26.2785 15.4966C26.308 12.1526 23.4299 9.10907 19.9088 8.68761Z" fill="white"/>
<path fill-rule="evenodd" clip-rule="evenodd" d="M20.2325 11.422C19.8661 11.4307 19.5071 11.4701 19.3718 11.8595C19.1702 12.4428 19.5954 12.5828 20.028 12.6528C21.4744 12.8832 22.2351 13.732 22.3793 15.1684C22.419 15.5592 22.6662 15.8742 23.0444 15.8305C23.5682 15.7678 23.6168 15.304 23.6006 14.8622C23.6256 13.2492 21.7952 11.384 20.2325 11.422Z" fill="white"/>
</svg>
